<svg  viewBox="0 0 600 442" fill="none" xmlns="http://www.w3.org/2000/svg">
<path d="M597.5 253.358C597.5 328.558 583.353 369.705 513 414.829C481.372 435.115 403.009 413.477 337 414.829C284.564 415.902 207.534 441.829 172 441.829C93.5107 441.829 113.792 391.199 85.5 363.329C48.9932 327.365 0 329.901 0 253.358C0 217.74 10.0161 183.89 28.0358 153.329C47.9704 119.52 117.7 65.1991 154.5 41.5C211.321 4.90748 297.998 0.328661 378.5 0.328661C428.371 0.328661 438 -5.17147 480 28.8285C543.5 35.3285 537.83 89.6242 559.5 108.329C610.809 152.615 597.5 184.337 597.5 253.358Z" fill="black" fill-opacity="0.02"/>
<path d="M211.5 284L256.966 366.5H166.034L211.5 284Z" fill="#0037FF"/>
<path d="M534.21 267.949C532.397 266.638 531.421 264.453 531.421 262.122C531.421 253.236 528.074 244.787 522.076 238.523L516.079 232.259V227.888L520.96 221.478C521.379 220.896 521.658 220.167 521.658 219.439C521.658 217.691 520.263 216.234 518.59 216.234H513.29L511.895 219.147L509.105 216.234H502.411C500.737 216.234 499.342 217.691 499.342 219.439C499.342 220.167 499.621 220.896 500.04 221.478L504.921 227.888V232.258L498.924 238.523C492.926 244.787 489.579 253.236 489.579 262.122C489.579 264.453 488.603 266.638 486.789 267.949C484.976 269.26 484 271.446 484 273.776C484 275.816 485.534 277.418 487.487 277.418H533.513C535.466 277.418 537 275.816 537 273.776C537 271.446 536.024 269.261 534.21 267.949Z" fill="#FDCD3B"/>
<path d="M516.776 232.259H504.224C503.108 232.259 502.132 231.239 502.132 230.073C502.132 228.908 503.108 227.888 504.224 227.888H516.776C517.892 227.888 518.868 228.908 518.868 230.073C518.868 231.239 517.892 232.259 516.776 232.259Z" fill="#FFCB5B"/>
<path d="M153.716 259.946C150.44 257.577 148.676 253.629 148.676 249.418C148.676 233.363 142.628 218.097 131.793 206.78L120.957 195.463V187.567L129.777 175.986C130.533 174.933 131.037 173.617 131.037 172.301C131.037 169.143 128.517 166.511 125.493 166.511H115.918L113.398 171.775L108.358 166.511H96.2625C93.2386 166.511 90.7188 169.143 90.7188 172.301C90.7188 173.617 91.2227 174.933 91.9787 175.986L100.798 187.567V195.462L89.9628 206.78C79.1275 218.097 73.0796 233.363 73.0796 249.418C73.0796 253.629 71.3158 257.577 68.0398 259.945C64.7638 262.314 63 266.262 63 270.473C63 274.158 65.7719 277.053 69.2997 277.053H152.455C155.983 277.053 158.755 274.158 158.755 270.473C158.755 266.262 156.992 262.314 153.716 259.946Z" fill="#FDCD3B"/>
<path d="M122.217 195.462H99.5383C97.5225 195.462 95.7584 193.62 95.7584 191.514C95.7584 189.409 97.5222 187.566 99.5383 187.566H122.217C124.233 187.566 125.997 189.409 125.997 191.514C125.997 193.62 124.233 195.462 122.217 195.462Z" fill="#FFCB5B"/>
<rect x="67" y="276" width="513" height="8" rx="4" fill="#814E4D" fill-opacity="0.7"/>
<path d="M250.984 154.031C257.422 157.625 260.641 163.375 260.641 171.281C260.641 177.656 258.281 183.062 253.562 187.5C248.844 191.938 243.109 194.156 236.359 194.156C231.328 194.156 226.797 193.141 222.766 191.109C218.109 188.734 214.969 185.359 213.344 180.984C213.094 180.328 212.969 179.625 212.969 178.875C212.969 177.125 213.672 175.672 215.078 174.516C216.391 173.453 217.891 172.922 219.578 172.922C221.547 172.922 223.125 173.703 224.312 175.266C226.312 177.953 227.469 179.422 227.781 179.672C229.719 181.234 232.578 182.016 236.359 182.016C239.328 182.016 241.922 181.125 244.141 179.344C246.391 177.562 247.516 175.422 247.516 172.922C247.516 165.141 242.281 160.734 231.812 159.703C227.219 159.266 224.922 157.344 224.922 153.938C224.922 151.344 226.703 149.453 230.266 148.266C233.641 147.516 237 146.75 240.344 145.969C242.469 145.312 244.062 144.453 245.125 143.391C246.188 142.328 246.734 141.062 246.766 139.594C246.891 134.938 243.25 132.609 235.844 132.609C233.406 132.609 230.734 133.547 227.828 135.422C224.922 137.266 222.938 138.188 221.875 138.188C220.094 138.188 218.578 137.547 217.328 136.266C216.078 134.984 215.453 133.531 215.453 131.906C215.453 129.25 218.078 126.609 223.328 123.984C228.016 121.641 231.828 120.469 234.766 120.469C241.859 120.469 247.562 122 251.875 125.062C256.594 128.438 258.953 133.25 258.953 139.5C258.953 142.938 258.281 145.875 256.938 148.312C255.625 150.719 253.641 152.625 250.984 154.031ZM287.875 154.5C285.938 154.5 284.328 153.922 283.047 152.766C281.797 151.609 281.172 150.141 281.172 148.359C281.172 148.016 281.094 147.484 280.938 146.766C280.812 146.047 280.75 145.5 280.75 145.125C280.75 143.375 281.406 141.938 282.719 140.812C284.062 139.656 285.656 139.078 287.5 139.078C292.188 139.078 294.531 142.172 294.531 148.359C294.531 150.141 293.891 151.609 292.609 152.766C291.359 153.922 289.781 154.5 287.875 154.5ZM288.625 186.234C283.781 186.234 281.359 182.578 281.359 175.266C281.359 173.516 282.062 172.047 283.469 170.859C284.812 169.766 286.391 169.219 288.203 169.219C292.953 169.219 295.328 172.828 295.328 180.047C295.328 181.828 294.688 183.312 293.406 184.5C292.125 185.656 290.531 186.234 288.625 186.234ZM346.75 192.047L328.141 192C322.234 192 319.281 190.141 319.281 186.422C319.281 182.234 322.578 180.141 329.172 180.141C329.797 180.141 330.484 180.156 331.234 180.188V138.609C328.516 140.484 326.75 141.422 325.938 141.422C324.188 141.422 322.656 140.797 321.344 139.547C320.062 138.297 319.422 136.844 319.422 135.188C319.422 133.469 320.469 131.703 322.562 129.891L327.859 126.047L333.578 121.453C335.922 119.766 338.188 118.922 340.375 118.922C343.188 118.922 344.594 120.609 344.594 123.984C344.594 127.703 344.438 132.938 344.125 139.688C343.812 146.438 343.656 156.078 343.656 168.609V179.953H346.75C348.562 179.953 350.078 180.531 351.297 181.688C352.547 182.844 353.172 184.281 353.172 186C353.172 187.719 352.547 189.156 351.297 190.312C350.078 191.469 348.562 192.047 346.75 192.047Z" fill="black"/>
</svg>
