<svg  viewBox="0 0 625 370" fill="none" xmlns="http://www.w3.org/2000/svg">
<g clip-path="url(#clip0)">
<path d="M31.4046 334.219C12.4826 316.741 -0.0350952 291.457 3.63287 265.94C11.2599 213.507 -23.0909 146.859 32.3361 127.342C60.3407 117.439 55.7412 44.6155 78.2148 24.3415C117.049 -10.6136 179.229 33.7211 302.193 27.1379C422.596 20.6712 475.81 -42.4229 558.194 49.3926C622.412 120.992 573.855 160.2 619.326 226.091C647.156 266.406 564.132 351.987 564.132 351.987L50.4431 351.754L31.4046 334.219Z" fill="#F8F8FF"/>
<path d="M36.0056 363.184C36.0056 363.184 41.2455 289.778 82.2917 297.06C123.105 304.284 118.389 341.337 139.349 336.676C160.309 332.015 161.997 282.03 170.206 222.489C177.309 170.814 205.605 186.66 210.903 203.322C215.328 217.304 217.075 261.231 233.959 264.144C250.843 267.057 256.665 233.85 257.83 217.537C258.994 201.225 264.817 134.81 286.067 133.936C306.154 133.121 314.887 162.774 314.887 219.285C314.887 275.796 317.216 312.499 326.531 327.646C335.847 342.793 348.073 338.715 351.858 336.676C356.574 334.113 370.78 310.169 374.273 250.745C377.766 191.321 401.055 200.06 406.295 208.799C411.535 217.537 425.799 265.601 443.266 264.436C460.732 263.27 465.681 251.91 468.592 225.111C471.503 198.312 475.812 131.956 497.994 132.771C520.992 133.645 530.191 238.569 529.841 270.145C529.376 309.935 559.127 357.067 577.758 357.067" fill="white"/>
<path d="M36.0056 363.184C36.0056 363.184 41.2455 289.778 82.2917 297.06C123.105 304.284 118.389 341.337 139.349 336.676C160.309 332.015 161.997 282.03 170.206 222.489C177.309 170.814 205.605 186.66 210.903 203.322C215.328 217.304 217.075 261.231 233.959 264.144C250.843 267.057 256.665 233.85 257.83 217.537C258.994 201.225 264.817 134.81 286.067 133.936C306.154 133.121 314.887 162.774 314.887 219.285C314.887 275.796 317.216 312.499 326.531 327.646C335.847 342.793 348.073 338.715 351.858 336.676C356.574 334.113 370.78 310.168 374.273 250.745C377.766 191.321 401.055 200.06 406.295 208.799C411.535 217.537 425.799 265.601 443.266 264.436C460.732 263.27 465.681 251.91 468.592 225.111C471.503 198.312 475.812 131.956 497.994 132.771C520.992 133.645 530.191 238.569 529.841 270.145C529.376 309.935 559.127 357.067 577.758 357.067" stroke="#0037FF" stroke-width="1.29667" stroke-miterlimit="10"/>
<path d="M137.893 343.958C142.074 343.958 145.462 340.568 145.462 336.385C145.462 332.202 142.074 328.811 137.893 328.811C133.713 328.811 130.325 332.202 130.325 336.385C130.325 340.568 133.713 343.958 137.893 343.958Z" fill="#0037FF"/>
<path d="M35.4233 370C39.6035 370 42.9922 366.609 42.9922 362.426C42.9922 358.243 39.6035 354.853 35.4233 354.853C31.2432 354.853 27.8545 358.243 27.8545 362.426C27.8545 366.609 31.2432 370 35.4233 370Z" fill="#0037FF"/>
<path d="M238.617 270.553C242.797 270.553 246.186 267.162 246.186 262.979C246.186 258.796 242.797 255.405 238.617 255.405C234.437 255.405 231.048 258.796 231.048 262.979C231.048 267.162 234.437 270.553 238.617 270.553Z" fill="#0037FF"/>
<path d="M192.039 195.458C196.22 195.458 199.608 192.067 199.608 187.884C199.608 183.701 196.22 180.31 192.039 180.31C187.859 180.31 184.471 183.701 184.471 187.884C184.471 192.067 187.859 195.458 192.039 195.458Z" fill="#0037FF"/>
<path d="M288.804 142.267C292.984 142.267 296.373 138.877 296.373 134.694C296.373 130.511 292.984 127.12 288.804 127.12C284.624 127.12 281.235 130.511 281.235 134.694C281.235 138.877 284.624 142.267 288.804 142.267Z" fill="#0037FF"/>
<path d="M396.397 211.712C400.577 211.712 403.966 208.321 403.966 204.138C403.966 199.955 400.577 196.564 396.397 196.564C392.217 196.564 388.829 199.955 388.829 204.138C388.829 208.321 392.217 211.712 396.397 211.712Z" fill="#0037FF"/>
<path d="M448.098 271.834C452.278 271.834 455.667 268.443 455.667 264.261C455.667 260.078 452.278 256.687 448.098 256.687C443.918 256.687 440.529 260.078 440.529 264.261C440.529 268.443 443.918 271.834 448.098 271.834Z" fill="#0037FF"/>
<path d="M496.655 141.452C500.835 141.452 504.224 138.061 504.224 133.878C504.224 129.695 500.835 126.305 496.655 126.305C492.475 126.305 489.086 129.695 489.086 133.878C489.086 138.061 492.475 141.452 496.655 141.452Z" fill="#0037FF"/>
<path d="M577.525 365.281C581.705 365.281 585.094 361.89 585.094 357.707C585.094 353.524 581.705 350.134 577.525 350.134C573.345 350.134 569.956 353.524 569.956 357.707C569.956 361.89 573.345 365.281 577.525 365.281Z" fill="#0037FF"/>
<path d="M343.416 344.541C347.596 344.541 350.984 341.15 350.984 336.967C350.984 332.785 347.596 329.394 343.416 329.394C339.236 329.394 335.847 332.785 335.847 336.967C335.847 341.15 339.236 344.541 343.416 344.541Z" fill="#0037FF"/>
</g>
<defs>
<clipPath id="clip0">
<rect width="625" height="370" fill="white"/>
</clipPath>
</defs>
</svg>
