<svg viewBox="0 0 352 376" fill="none" xmlns="http://www.w3.org/2000/svg">
<g opacity="0.8">
<g clip-path="url(#clip0)">
<path d="M66.1419 59.8679L71.84 57.6708L73.3368 60.9252L74.0284 68.7026L72.7535 69.6258L66.1419 59.8679Z" fill="black"/>
<path d="M93.8271 75.1855L87.3187 78.9453L94.1574 89.023L95.7523 87.8626L96.7432 79.8634L93.8271 75.1855Z" fill="black"/>
<g opacity="0.05">
<path opacity="0.05" d="M107.479 28.2371C106.168 30.2176 104.945 32.3631 104.568 33.8691L105.6 33.1574C105.471 32.0382 106.323 30.1815 107.479 28.2371Z" fill="black"/>
<path opacity="0.05" d="M113.347 55.19L114.065 40.1147C98.0645 50.2595 74.6529 59.5171 74.6529 59.5171L73.5226 61.3068C73.5226 61.3068 96.96 52.0491 112.934 41.9044L112.263 56.1029L113.347 55.19Z" fill="black"/>
</g>
<g opacity="0.5">
<path opacity="0.5" d="M71.4632 70.3582L72.7742 69.404L72.0671 61.3945L70.5239 58.0473L64.6555 60.3114L71.4632 70.3582Z" fill="url(#paint0_linear)"/>
<path opacity="0.5" d="M160.815 0.969586C157.249 -0.742693 154.581 0.0618717 152.712 1.48533C151.044 2.74043 149.742 4.41758 148.939 6.34367L148.423 7.7104L146.008 9.46393L145.223 7.78776C145.223 7.78776 136.671 -7.39582 111.443 22.2545L111.329 22.1616C111.329 22.1616 109.182 24.7868 107.226 27.7317L106.947 28.1546L106.823 28.3454L106.648 28.6188L106.519 28.8251L106.323 29.15L106.152 29.4285L105.972 29.7328L105.843 29.9545L105.708 30.1866L105.579 30.4187L105.445 30.6663L105.249 31.0376L105.141 31.2439L105.022 31.4863L104.934 31.672L104.821 31.9144L104.748 32.0743C104.686 32.2187 104.628 32.3597 104.573 32.4972L104.511 32.6571L104.428 32.884L104.377 33.0387C104.339 33.1556 104.305 33.2708 104.274 33.3843C104.274 33.4462 104.237 33.5029 104.227 33.5596C104.126 33.9218 104.088 34.2985 104.114 34.6736L70.5239 58.0318L72.2477 61.7761C72.2477 61.7761 96.3871 52.2451 112.841 41.7909L112.15 56.4124L112.108 57.3149C112.108 57.3149 97.0787 69.7496 93.1665 76.0829L86.4568 79.9562L93.5019 90.333L95.1432 89.1416L96.1755 80.8897L123.752 58.8622C123.752 58.8622 128.981 49.3157 129.074 41.3268L130.204 45.6848C130.204 45.6848 132.609 52.436 134.307 52.7041C136.005 52.9723 136.01 47.4693 134.823 45.8344C133.636 44.1995 134.194 33.276 134.194 33.276L134.503 31.0531L138.818 27.9174L138.978 27.7678L139.205 29.1397L140.072 29.217V29.2789L140.114 29.6761L140.671 40.089L143.726 51.8686C143.726 51.8686 146.132 58.6198 147.83 58.8879C149.528 59.1561 149.533 53.6531 148.346 52.0182C147.159 50.3833 147.721 39.4649 147.721 39.4649L148.981 30.3723V30.197L149.006 29.9958L151.489 30.2124C151.489 30.2124 154.07 21.3467 149.75 17.4838L148.965 15.8076L150.575 14.642L150.901 14.4099C152.265 15.744 154.099 16.491 156.008 16.491C157.917 16.491 159.75 15.744 161.115 14.4099C162.322 14.5222 163.53 14.2003 164.521 13.5022L165.146 13.0535C165.818 12.6272 166.424 12.1061 166.947 11.5063C167.386 10.6914 166.338 3.61537 160.815 0.969586Z" fill="url(#paint1_linear)"/>
</g>
<path d="M111.484 22.8321C111.484 22.8321 104.139 31.8061 104.485 34.9521L71.8452 57.6708L73.5174 61.3068C73.5174 61.3068 96.9548 52.0491 112.929 41.9044L112.217 57.0003C112.217 57.0003 97.6258 69.0533 93.8323 75.2062L96.7484 79.884L123.525 58.496C123.525 58.496 131.468 43.9932 127.654 36.0816L111.484 22.8321Z" fill="#535461"/>
<path d="M346.73 242.669C323.221 336.886 227.716 394.232 133.409 370.734C39.1019 347.237 -18.2503 251.798 5.27484 157.571C28.8 63.344 124.279 5.99299 218.555 29.4853C312.831 52.9775 370.24 148.427 346.73 242.669Z" fill="#FF8C00"/>
<path d="M253.605 175.055C257.11 151.65 239.277 139.071 214.895 130.701L222.808 98.9976L203.494 94.1857L195.788 125.027C190.71 123.764 185.497 122.572 180.305 121.386L188.046 90.3124L168.774 85.5108L160.857 117.203C156.655 116.249 152.526 115.3 148.526 114.305V114.207L121.91 107.544L116.748 128.173C116.748 128.173 131.076 131.454 130.777 131.66C138.596 133.609 140.01 138.782 139.778 142.882L130.766 178.985C131.449 179.155 132.12 179.371 132.774 179.629C132.129 179.47 131.443 179.294 130.71 179.114L118.08 229.708C117.125 232.081 114.699 235.645 109.228 234.293C109.419 234.572 95.1897 230.791 95.1897 230.791L85.6774 252.907L110.782 259.173C115.458 260.344 120.041 261.571 124.552 262.721L116.563 294.76L135.855 299.571L143.773 267.848C149.043 269.277 154.157 270.597 159.164 271.84L151.277 303.419L170.591 308.231L178.581 276.239C211.515 282.464 236.279 279.952 246.71 250.189C255.107 226.222 246.292 212.4 228.965 203.385C241.548 200.481 251.071 192.188 253.605 175.055ZM209.481 236.882C203.515 260.849 163.133 247.894 150.044 244.619L160.65 202.137C173.739 205.427 215.742 211.889 209.481 236.882ZM215.453 174.704C210.008 196.505 176.397 185.426 165.497 182.714L175.112 144.162C186.018 146.9 221.125 151.97 215.453 174.704Z" fill="white"/>
<path d="M139.092 24.3587L139.938 40.2437L142.901 51.6778C142.901 51.6778 145.234 58.233 146.885 58.4909C148.537 58.7487 148.542 53.4056 147.401 51.8171C146.261 50.2286 146.808 39.63 146.808 39.63L148.645 26.1432L139.092 24.3587Z" fill="#FDA57D"/>
<path d="M138.106 27.02L138.534 29.5987L150.477 30.6302C150.477 30.6302 152.975 22.0224 148.785 18.2523L138.106 27.02Z" fill="#F55F44"/>
<path d="M148.785 18.2884L144.372 8.87603C144.372 8.87603 136.036 -5.92075 111.417 23.1055L127.654 36.061L138.163 28.428L148.785 18.2884Z" fill="#F55F44"/>
<path d="M152.263 5.33371L156.189 10.7322L147.618 16.9573C147.02 17.3916 146.274 17.5707 145.544 17.4553C144.814 17.3399 144.159 16.9394 143.725 16.3419L143.078 15.4533C142.644 14.8558 142.465 14.1103 142.58 13.3807C142.696 12.6511 143.096 11.9973 143.694 11.563L152.266 5.33789L152.263 5.33371Z" fill="#FDA57D"/>
<path opacity="0.05" d="M147.706 8.64389C147.37 9.85426 147.367 11.1328 147.698 12.3446C148.028 13.5565 148.68 14.6567 149.585 15.5291L153.636 12.5842L149.708 7.18433L147.706 8.64389Z" fill="black"/>
<path d="M159.011 15.9544C162.177 13.6551 162.882 9.23226 160.586 6.07563C158.29 2.91901 153.863 2.224 150.697 4.52328C147.531 6.82257 146.826 11.2455 149.122 14.4021C151.418 17.5587 155.845 18.2537 159.011 15.9544Z" fill="#FDA57D"/>
<path opacity="0.05" d="M151.577 6.07036L147.484 8.80382L148 7.47319C148 7.47319 151.365 -1.2945 159.21 2.48592C164.573 5.06466 165.59 11.9241 165.182 12.708C164.577 13.3659 163.882 13.9354 163.117 14.3997C162.111 15.1126 160.873 15.4223 159.649 15.2676C158.425 15.1129 157.303 14.5051 156.506 13.5642C155.133 11.9292 152.738 8.54595 153.177 6.60674C152.774 5.87438 152.248 5.57524 151.572 6.09099L151.577 6.07036Z" fill="black"/>
<path d="M151.897 5.83825L147.804 8.5717L148.32 7.24108C148.32 7.24108 151.685 -1.52662 159.53 2.25381C164.893 4.83254 165.91 11.692 165.502 12.4759C164.897 13.1338 164.202 13.7033 163.437 14.1676C162.431 14.8805 161.193 15.1902 159.969 15.0355C158.745 14.8808 157.623 14.273 156.826 13.332C155.453 11.6971 153.058 8.31383 153.497 6.37462C153.094 5.64226 152.568 5.34313 151.892 5.85887L151.897 5.83825Z" fill="#5A2F32"/>
<path d="M153.279 6.29262C153.984 5.78005 154.347 5.08024 154.092 4.72955C153.836 4.37885 153.058 4.51008 152.354 5.02264C151.649 5.53521 151.286 6.23504 151.541 6.58573C151.797 6.93642 152.575 6.80518 153.279 6.29262Z" fill="#FDA57D"/>
<path opacity="0.05" d="M136.79 28.2165L138.663 26.6125L138.684 29.1449L138.276 28.1701L136.79 28.2165Z" fill="black"/>
<path opacity="0.05" d="M139.36 29.7431L139.401 30.1351L148.015 30.8055L148.067 30.4394L139.36 29.7431Z" fill="black"/>
<path d="M125.972 18.3606L126.818 34.2456L129.781 45.6539C129.781 45.6539 132.114 52.2091 133.765 52.4669C135.417 52.7248 135.422 47.3817 134.281 45.7932C133.141 44.2047 133.677 33.6319 133.677 33.6319L135.546 20.1451L125.972 18.3606Z" fill="#FDA57D"/>
<path d="M196.243 139.649H195.345V140.546H196.243V139.649Z" fill="#CCCCCC"/>
<path d="M194.761 141H196.981C197.14 141 197.298 141.031 197.445 141.092C197.592 141.153 197.726 141.242 197.838 141.355C197.951 141.468 198.04 141.601 198.101 141.748C198.162 141.895 198.194 142.053 198.194 142.212V149.685H193.548V142.212C193.548 142.053 193.58 141.895 193.641 141.748C193.702 141.601 193.791 141.468 193.904 141.355C194.016 141.242 194.15 141.153 194.297 141.092C194.444 141.031 194.602 141 194.761 141Z" fill="#535461"/>
<path d="M197.146 140.402H194.446V141H197.146V140.402Z" fill="#F7931A"/>
<path d="M198.194 144.44H193.548V146.235H198.194V144.44Z" fill="#F7931A"/>
<path d="M196.248 139.798V140.247C196.083 140.247 195.948 140.144 195.948 140.02C195.948 139.896 196.083 139.798 196.248 139.798Z" fill="#E6E6E6"/>
<path opacity="0.05" d="M126.921 10.6347C126.921 10.6347 124.95 15.9521 125.786 17.7675L126.921 10.6347Z" fill="black"/>
<path opacity="0.05" d="M126.013 18.0872L126.008 19.0723L135.468 20.6608L135.582 19.8717L126.013 18.0872Z" fill="black"/>
<path d="M128.15 9.98483L125.972 18.3606L135.541 20.145L138.07 9.57224L128.15 9.98483Z" fill="#F55F44"/>
<g opacity="0.5">
<path opacity="0.5" d="M127.825 38.9956L129.708 46.1232C129.708 46.1232 132.139 52.8279 133.837 53.0806C135.535 53.3334 135.561 47.8871 134.354 46.2676C133.719 45.4167 133.585 42.023 133.595 38.9956H127.825Z" fill="url(#paint2_linear)"/>
</g>
<path d="M127.974 38.9956L129.786 45.9737C129.786 45.9737 132.119 52.5288 133.77 52.7867C135.422 53.0446 135.427 47.7014 134.286 46.1129C133.677 45.2774 133.548 41.956 133.559 38.9956H127.974Z" fill="#FDA57D"/>
<g opacity="0.5">
<path opacity="0.5" d="M147.133 38.7016H139.597L139.701 40.5893L142.839 52.3586C142.839 52.3586 145.311 59.1046 147.055 59.3728C148.8 59.6409 148.805 54.1379 147.572 52.5082C146.338 50.8784 146.957 39.9807 146.957 39.9807L147.133 38.7016Z" fill="url(#paint3_linear)"/>
</g>
<path d="M146.963 38.7016H139.84L139.938 40.5377L142.901 51.9718C142.901 51.9718 145.234 58.5269 146.885 58.7848C148.537 59.0427 148.542 53.6995 147.401 52.111C146.261 50.5225 146.808 39.9239 146.808 39.9239L146.963 38.7016Z" fill="#FDA57D"/>
<path opacity="0.2" d="M196.129 139.767L209.032 137.189L209.548 143.378L196.129 140.283V139.767Z" fill="#535461"/>
<g opacity="0.5">
<path opacity="0.5" d="M176.661 141.676L177.017 141.83L188.372 146.715L202.839 129.566C202.839 129.566 205.032 127.116 202.421 125.44C199.809 123.764 198.168 128.101 198.168 128.101L187.05 140.036L177.605 135.317L177.755 134.326L169.146 129.354C168.979 129.041 168.796 128.737 168.599 128.442L168.521 128.163L168.093 127.787C168.01 127.699 167.928 127.616 167.845 127.544L169.27 125.997C170.33 126.368 171.458 126.502 172.576 126.389C173.693 126.276 174.772 125.919 175.736 125.344C176.7 124.768 177.526 123.988 178.155 123.058C178.784 122.128 179.2 121.071 179.375 119.963C180.042 120.09 180.727 120.09 181.394 119.963C182.27 119.778 183.089 119.385 183.781 118.817C184.473 118.249 185.017 117.522 185.368 116.698C185.338 116.754 185.296 116.802 185.245 116.838C185.194 116.875 185.136 116.899 185.074 116.91C185.184 116.717 185.283 116.517 185.368 116.311C185.074 117.023 182.323 116.043 181.91 115.795C180.65 115.125 180 114.135 179.329 112.918C178.044 110.514 175.67 109.627 172.996 109.416C170.953 109.195 168.887 109.454 166.963 110.174C166.004 110.54 165.132 111.101 164.4 111.821C163.669 112.541 163.095 113.404 162.715 114.357C162.485 115.01 162.38 115.701 162.405 116.394C162.362 117.135 162.484 117.877 162.765 118.565C163.045 119.253 163.476 119.87 164.026 120.37C164.12 120.451 164.218 120.527 164.32 120.597C164.377 120.819 164.439 121.035 164.516 121.252L164.139 121.66L161.693 124.31L161.569 124.274L135.799 128.127V128.179C134.942 127.611 131.061 125.641 121.373 128.318C117.714 129.349 111.618 129.22 105.074 128.617C100.501 122.933 97.5484 105.233 97.5484 105.233L96.3923 100.225L81.3884 103.691C81.3884 103.691 88.3097 105.238 89.4658 107.157C91.2258 107.745 92.3148 120.881 92.7329 127.08C83.7471 125.693 76.3871 124.104 76.3871 124.104L71.0039 122.18L67.1587 135.662C67.1587 135.662 71.391 131.02 75.2361 130.654C75.2361 130.654 94.4671 139.896 108.702 137.973C114.245 137.225 119.603 139.566 124.088 140.283C128.014 140.937 131.98 141.323 135.959 141.438L136.005 145.673C136.005 145.673 151.845 144.992 162.25 141.691C163.04 143.826 163.675 145.368 163.897 145.482L165.786 144.559L176.397 157.612L197.161 149.133C197.161 149.133 200.258 147.978 198.71 145.281C197.161 142.583 193.708 145.668 193.708 145.668L178.323 151.057L171.83 142.062L171.577 141.712L172.939 141.046C172.939 141.046 172.898 140.845 172.815 140.5L176.397 143.357L176.661 141.676Z" fill="url(#paint4_linear)"/>
</g>
<path d="M164.108 130.654L159.355 126.25L167.226 117.724L171.979 122.124L164.108 130.654Z" fill="#FDA57D"/>
<path opacity="0.05" d="M166.849 118.096L163.375 121.861C163.75 122.919 164.358 123.879 165.154 124.671C165.95 125.463 166.914 126.066 167.974 126.435L171.587 122.5L166.849 118.096Z" fill="black"/>
<path d="M167.871 138.029L186.932 146.224L201.017 129.545C201.017 129.545 203.148 127.162 200.609 125.533C198.07 123.903 196.48 128.111 196.48 128.111L185.641 139.705L171.732 132.763L167.871 138.029Z" fill="#FDA57D"/>
<path d="M166.87 128.545L176.599 134.161L175.288 142.965L166.121 135.662L166.87 128.545Z" fill="#6C63FF"/>
<path d="M170.797 126.487C174.931 126.487 178.281 123.132 178.281 118.993C178.281 114.854 174.931 111.499 170.797 111.499C166.664 111.499 163.314 114.854 163.314 118.993C163.314 123.132 166.664 126.487 170.797 126.487Z" fill="#FDA57D"/>
<path d="M164.645 125.548L160.903 124.424L135.819 128.173L136.005 145.193C136.005 145.193 166.498 143.883 169.863 136.018L167.618 128.173L164.645 125.548Z" fill="#6C63FF"/>
<path opacity="0.05" d="M166.415 135.889L175.288 142.965L175.665 139.969L166.87 131.541L166.415 135.889Z" fill="black"/>
<path d="M136.005 128.354C136.005 128.354 132.64 125.357 121.791 128.354C110.942 131.35 78.0181 124.228 78.0181 124.228L76.9032 130.603C76.9032 130.603 95.6077 139.592 109.45 137.72C114.839 136.993 120.052 139.267 124.418 139.968C128.25 140.601 132.122 140.968 136.005 141.067V128.354Z" fill="#4D8AF0"/>
<path d="M78.0181 124.233L72.7742 122.361L69.0323 135.471C69.0323 135.471 73.1613 130.974 76.8877 130.603L78.0181 124.233Z" fill="#535461"/>
<path d="M90.7355 107.755L98.5806 105.883C98.5806 105.883 102.323 128.359 107.933 130.231H94.1058C94.1058 130.231 92.9806 108.503 90.7355 107.755Z" fill="#4D8AF0"/>
<path d="M98.5806 105.883L97.4606 101.014L82.8697 104.387C82.8697 104.387 89.5794 105.888 90.7252 107.76L98.5806 105.883Z" fill="#535461"/>
<path opacity="0.05" d="M171.99 110.329C170.003 110.114 167.993 110.366 166.121 111.066C165.189 111.423 164.341 111.968 163.63 112.669C162.92 113.369 162.362 114.209 161.992 115.135C161.321 117.013 161.755 119.318 163.272 120.607C163.633 120.947 164.095 121.157 164.588 121.206C165.383 121.237 166.049 120.654 166.653 120.148C167.799 119.203 169.062 118.407 170.41 117.781C171.556 117.265 172.955 116.853 174.023 117.508C174.507 117.866 174.945 118.282 175.329 118.746C175.948 119.36 176.708 119.812 177.543 120.063C178.378 120.314 179.262 120.356 180.117 120.185C180.972 120.014 181.771 119.635 182.445 119.081C183.119 118.528 183.646 117.818 183.979 117.013C183.69 117.709 181.017 116.75 180.614 116.538C179.386 115.888 178.756 114.924 178.126 113.743C176.898 111.396 174.586 110.535 171.99 110.329Z" fill="black"/>
<path d="M171.99 109.957C170.003 109.742 167.993 109.995 166.121 110.695C165.189 111.051 164.341 111.597 163.63 112.297C162.92 112.998 162.362 113.838 161.992 114.764C161.321 116.641 161.755 118.947 163.272 120.236C163.633 120.576 164.095 120.786 164.588 120.834C165.383 120.865 166.049 120.282 166.653 119.777C167.799 118.831 169.062 118.036 170.41 117.41C171.556 116.894 172.955 116.481 174.023 117.136C174.507 117.495 174.945 117.911 175.329 118.374C175.948 118.988 176.708 119.441 177.543 119.692C178.378 119.943 179.262 119.985 180.117 119.813C180.972 119.642 181.771 119.263 182.445 118.71C183.119 118.157 183.646 117.446 183.979 116.641C183.69 117.338 181.017 116.378 180.614 116.167C179.386 115.517 178.756 114.553 178.126 113.371C176.898 111.025 174.586 110.158 171.99 109.957Z" fill="black"/>
<path d="M168.913 118.373C169.057 117.769 168.928 117.221 168.626 117.15C168.324 117.078 167.962 117.51 167.819 118.114C167.675 118.718 167.804 119.266 168.106 119.338C168.409 119.409 168.77 118.978 168.913 118.373Z" fill="#FDA57D"/>
<path opacity="0.05" d="M164.965 144.125L165.218 144.435L170.844 141.707L170.596 141.366L164.965 144.125Z" fill="black"/>
<path opacity="0.05" d="M176.454 135.126L175.535 141.279L175.876 141.475L176.599 135.193L176.454 135.126Z" fill="black"/>
<path d="M146.854 119.364H142.364V149.706H146.854V119.364Z" fill="#E0E0E0"/>
<path d="M138.37 35.8495L134.113 34.4206L124.443 63.1823L128.7 64.6112L138.37 35.8495Z" fill="#E0E0E0"/>
<path d="M145.357 122.737H143.861V49.4704L145.337 49.5478L145.357 122.737Z" fill="#E0E0E0"/>
<path d="M162.194 140.716L175.288 156.823L195.489 148.571C195.489 148.571 198.483 147.447 196.986 144.827C195.489 142.207 192.124 145.203 192.124 145.203L177.156 150.448L168.052 137.838L162.194 140.716Z" fill="#FDA57D"/>
<path d="M156.769 127.42C156.769 127.42 162.379 144.651 163.128 145.023L171.902 140.716C171.902 140.716 169.409 129.097 166.632 127.307C163.855 125.517 157.146 125.92 156.769 127.42Z" fill="#6C63FF"/>
<path opacity="0.05" d="M158.369 132.253C158.369 132.253 158.075 138.844 159.948 139.989L158.369 132.253Z" fill="black"/>
<path d="M143.871 49.5478L137.12 39.5784L137.827 37.469L145.337 49.5478H143.871Z" fill="#E0E0E0"/>
<path d="M178.181 121.721L177.205 121.073L175.569 123.535L176.545 124.183L178.181 121.721Z" fill="black"/>
<path d="M176.814 121.606L169.58 116.8L169.255 117.289L176.488 122.095L176.814 121.606Z" fill="black"/>
<g opacity="0.7">
<path opacity="0.7" d="M311.876 316.617H293.13V330.46H311.876V316.617Z" fill="url(#paint5_linear)"/>
<g opacity="0.1">
<path opacity="0.1" d="M293.13 320.284C293.13 320.284 300.124 321.099 302.503 321.099C304.883 321.099 311.876 320.284 311.876 320.284V316.823H293.13V320.284Z" fill="url(#paint6_linear)"/>
</g>
<path opacity="0.7" d="M311.876 320.078C311.876 320.078 304.883 320.893 302.503 320.893C300.124 320.893 293.13 320.078 293.13 320.078V306.436C293.13 303.952 294.118 301.57 295.876 299.813C297.633 298.057 300.017 297.07 302.503 297.07C304.989 297.07 307.373 298.057 309.131 299.813C310.889 301.57 311.876 303.952 311.876 306.436V320.078Z" fill="url(#paint7_linear)"/>
<path opacity="0.7" d="M302.503 299.721C301.909 299.721 301.339 299.485 300.919 299.065C300.499 298.646 300.263 298.076 300.263 297.483V292.392H304.743V297.483C304.743 298.076 304.507 298.646 304.087 299.065C303.667 299.485 303.097 299.721 302.503 299.721Z" fill="url(#paint8_linear)"/>
<path opacity="0.7" d="M299.855 325.575H293.13V371.183H299.855V325.575Z" fill="url(#paint9_linear)"/>
<path opacity="0.7" d="M311.876 325.575H305.151V371.183H311.876V325.575Z" fill="url(#paint10_linear)"/>
<g opacity="0.1">
<path opacity="0.1" d="M300.263 295.791C301.735 296.153 303.272 296.153 304.743 295.791V292.594H300.263V295.791Z" fill="url(#paint11_linear)"/>
</g>
<path opacity="0.7" d="M302.503 294.017C307.905 294.017 312.284 289.641 312.284 284.244C312.284 278.846 307.905 274.47 302.503 274.47C297.102 274.47 292.723 278.846 292.723 284.244C292.723 289.641 297.102 294.017 302.503 294.017Z" fill="url(#paint12_linear)"/>
<path opacity="0.7" d="M302.503 295.853C307.68 295.853 311.876 291.66 311.876 286.487C311.876 281.314 307.68 277.121 302.503 277.121C297.327 277.121 293.13 281.314 293.13 286.487C293.13 291.66 297.327 295.853 302.503 295.853Z" fill="url(#paint13_linear)"/>
<g opacity="0.1">
<path opacity="0.1" d="M296.826 281.789C297.337 282.071 297.901 282.247 298.483 282.304C300.883 282.632 303.327 282.357 305.595 281.505C305.807 281.965 306.118 282.372 306.505 282.699C306.892 283.026 307.346 283.265 307.835 283.398C308.814 283.657 309.826 283.77 310.839 283.733C311.061 283.757 311.286 283.714 311.484 283.609C311.933 283.305 311.716 282.609 311.453 282.134L310.147 279.767C309.8 279.046 309.332 278.391 308.764 277.828C307.974 277.205 307.034 276.801 306.039 276.657C303.721 276.196 301.327 276.275 299.045 276.889C296.614 277.534 293.481 279.767 296.826 281.789Z" fill="url(#paint14_linear)"/>
</g>
<path opacity="0.7" d="M296.826 281.588C297.337 281.87 297.901 282.046 298.483 282.103C300.883 282.431 303.327 282.156 305.595 281.304C305.807 281.763 306.118 282.171 306.505 282.498C306.892 282.825 307.346 283.064 307.835 283.197C308.814 283.455 309.826 283.568 310.839 283.532C311.061 283.556 311.286 283.513 311.484 283.408C311.933 283.104 311.716 282.408 311.453 281.933L310.147 279.566C309.8 278.845 309.332 278.189 308.764 277.627C307.974 277.004 307.034 276.6 306.039 276.456C303.721 275.995 301.327 276.074 299.045 276.688C296.614 277.333 293.481 279.561 296.826 281.588Z" fill="url(#paint15_linear)"/>
<path opacity="0.7" d="M311.773 288.014C312.223 288.014 312.588 287.33 312.588 286.487C312.588 285.644 312.223 284.96 311.773 284.96C311.323 284.96 310.957 285.644 310.957 286.487C310.957 287.33 311.323 288.014 311.773 288.014Z" fill="url(#paint16_linear)"/>
<path opacity="0.7" d="M293.234 288.014C293.684 288.014 294.049 287.33 294.049 286.487C294.049 285.644 293.684 284.96 293.234 284.96C292.783 284.96 292.418 285.644 292.418 286.487C292.418 287.33 292.783 288.014 293.234 288.014Z" fill="url(#paint17_linear)"/>
<path opacity="0.7" d="M327.566 276.714C328.804 276.714 329.806 275.711 329.806 274.475C329.806 273.239 328.804 272.237 327.566 272.237C326.329 272.237 325.326 273.239 325.326 274.475C325.326 275.711 326.329 276.714 327.566 276.714Z" fill="url(#paint18_linear)"/>
<path opacity="0.7" d="M305.392 310.686C305.392 311.42 305.314 312.056 305.156 312.592C304.998 313.129 304.783 313.573 304.51 313.924C304.238 314.276 303.918 314.538 303.551 314.712C303.188 314.881 302.799 314.966 302.385 314.966C301.971 314.966 301.582 314.881 301.219 314.712C300.856 314.538 300.538 314.276 300.266 313.924C299.993 313.573 299.778 313.129 299.62 312.592C299.467 312.056 299.39 311.42 299.39 310.686C299.39 309.952 299.467 309.317 299.62 308.78C299.778 308.243 299.993 307.799 300.266 307.448C300.538 307.097 300.856 306.836 301.219 306.666C301.582 306.493 301.971 306.406 302.385 306.406C302.799 306.406 303.188 306.493 303.551 306.666C303.918 306.836 304.238 307.097 304.51 307.448C304.783 307.799 304.998 308.243 305.156 308.78C305.314 309.317 305.392 309.952 305.392 310.686ZM304.8 310.686C304.8 310.007 304.735 309.427 304.605 308.946C304.475 308.464 304.299 308.071 304.078 307.768C303.861 307.46 303.605 307.235 303.309 307.093C303.017 306.951 302.709 306.88 302.385 306.88C302.061 306.88 301.754 306.951 301.462 307.093C301.17 307.235 300.913 307.46 300.692 307.768C300.471 308.071 300.295 308.464 300.165 308.946C300.035 309.427 299.97 310.007 299.97 310.686C299.97 311.369 300.035 311.951 300.165 312.432C300.295 312.91 300.471 313.303 300.692 313.611C300.913 313.914 301.17 314.137 301.462 314.28C301.754 314.418 302.061 314.487 302.385 314.487C302.709 314.487 303.017 314.418 303.309 314.28C303.605 314.137 303.861 313.914 304.078 313.611C304.299 313.303 304.475 312.91 304.605 312.432C304.735 311.951 304.8 311.369 304.8 310.686ZM305.392 324.686C305.392 325.42 305.314 326.056 305.156 326.592C304.998 327.129 304.783 327.573 304.51 327.924C304.238 328.276 303.918 328.538 303.551 328.712C303.188 328.881 302.799 328.966 302.385 328.966C301.971 328.966 301.582 328.881 301.219 328.712C300.856 328.538 300.538 328.276 300.266 327.924C299.993 327.573 299.778 327.129 299.62 326.592C299.467 326.056 299.39 325.42 299.39 324.686C299.39 323.952 299.467 323.317 299.62 322.78C299.778 322.243 299.993 321.799 300.266 321.448C300.538 321.097 300.856 320.836 301.219 320.666C301.582 320.493 301.971 320.406 302.385 320.406C302.799 320.406 303.188 320.493 303.551 320.666C303.918 320.836 304.238 321.097 304.51 321.448C304.783 321.799 304.998 322.243 305.156 322.78C305.314 323.317 305.392 323.952 305.392 324.686ZM304.8 324.686C304.8 324.007 304.735 323.427 304.605 322.946C304.475 322.464 304.299 322.071 304.078 321.768C303.861 321.46 303.605 321.235 303.309 321.093C303.017 320.951 302.709 320.88 302.385 320.88C302.061 320.88 301.754 320.951 301.462 321.093C301.17 321.235 300.913 321.46 300.692 321.768C300.471 322.071 300.295 322.464 300.165 322.946C300.035 323.427 299.97 324.007 299.97 324.686C299.97 325.369 300.035 325.951 300.165 326.432C300.295 326.91 300.471 327.303 300.692 327.611C300.913 327.914 301.17 328.137 301.462 328.28C301.754 328.418 302.061 328.487 302.385 328.487C302.709 328.487 303.017 328.418 303.309 328.28C303.605 328.137 303.861 327.914 304.078 327.611C304.299 327.303 304.475 326.91 304.605 326.432C304.735 325.951 304.8 325.369 304.8 324.686Z" fill="black"/>
<path opacity="0.7" d="M302.71 290.149C302.71 290.149 297.414 291.98 293.337 287.911C293.337 287.911 293.667 289.262 294.235 290.886C295.153 292.626 296.596 294.033 298.36 294.907C300.123 295.781 302.117 296.078 304.059 295.756C306.001 295.434 307.792 294.51 309.178 293.114C310.565 291.717 311.476 289.92 311.783 287.978C310.803 288.504 303.84 291.851 302.71 290.149ZM302.508 292.594C301.476 292.594 300.676 291.82 300.676 291.371C300.676 290.922 301.497 290.964 302.508 290.964C303.52 290.964 304.341 290.922 304.341 291.371C304.341 291.82 303.515 292.594 302.503 292.594H302.508Z" fill="url(#paint19_linear)"/>
<path opacity="0.7" d="M307.484 298.509C307.484 298.509 318.395 292.392 325.12 274.475L328.382 276.513C328.382 276.513 322.983 299.345 309.435 304.61L307.484 298.509Z" fill="url(#paint20_linear)"/>
<path opacity="0.7" d="M277.445 276.714C278.682 276.714 279.685 275.711 279.685 274.475C279.685 273.239 278.682 272.237 277.445 272.237C276.208 272.237 275.205 273.239 275.205 274.475C275.205 275.711 276.208 276.714 277.445 276.714Z" fill="url(#paint21_linear)"/>
<path opacity="0.7" d="M297.523 298.509C297.523 298.509 286.612 292.392 279.886 274.475L276.645 276.507C276.645 276.507 282.044 299.34 295.592 304.605L297.523 298.509Z" fill="url(#paint22_linear)"/>
<path opacity="0.7" d="M299.448 372.813H293.538V372.508C293.538 371.726 293.849 370.976 294.403 370.422C294.956 369.869 295.707 369.558 296.49 369.558C297.273 369.558 298.024 369.869 298.578 370.422C299.132 370.976 299.443 371.726 299.443 372.508L299.448 372.813Z" fill="url(#paint23_linear)"/>
<path opacity="0.7" d="M311.468 372.813H305.548V372.508C305.548 371.726 305.859 370.976 306.413 370.422C306.967 369.869 307.718 369.558 308.501 369.558C309.284 369.558 310.035 369.869 310.588 370.422C311.142 370.976 311.453 371.726 311.453 372.508L311.468 372.813Z" fill="url(#paint24_linear)"/>
</g>
<path d="M311.608 316.787H293.404V330.233H311.608V316.787Z" fill="#4D8AF0"/>
<path opacity="0.1" d="M293.404 320.346C293.404 320.346 300.196 321.135 302.503 321.135C304.81 321.135 311.603 320.346 311.603 320.346V316.988H293.404V320.346Z" fill="black"/>
<path d="M311.603 320.15C311.603 320.15 304.81 320.939 302.503 320.939C300.196 320.939 293.404 320.15 293.404 320.15V306.905C293.404 304.494 294.363 302.181 296.069 300.476C297.775 298.771 300.09 297.813 302.503 297.813C304.917 297.813 307.231 298.771 308.937 300.476C310.644 302.181 311.603 304.494 311.603 306.905V320.15Z" fill="#6C63FF"/>
<path d="M300.325 293.264H304.676V298.205C304.676 298.782 304.447 299.336 304.038 299.744C303.63 300.152 303.076 300.381 302.498 300.381C301.92 300.381 301.366 300.152 300.958 299.744C300.549 299.336 300.32 298.782 300.32 298.205V293.264H300.325Z" fill="#FDB797"/>
<path d="M299.933 325.488H293.404V369.77H299.933V325.488Z" fill="#4D8AF0"/>
<path d="M311.603 325.488H305.074V369.77H311.603V325.488Z" fill="#4D8AF0"/>
<path opacity="0.1" d="M300.33 296.56C301.759 296.911 303.252 296.911 304.681 296.56V293.465H300.33V296.56Z" fill="black"/>
<path d="M302.503 294.847C307.748 294.847 312 290.599 312 285.358C312 280.116 307.748 275.868 302.503 275.868C297.258 275.868 293.006 280.116 293.006 285.358C293.006 290.599 297.258 294.847 302.503 294.847Z" fill="#814E4D"/>
<path d="M302.503 296.621C307.529 296.621 311.603 292.55 311.603 287.529C311.603 282.507 307.529 278.436 302.503 278.436C297.478 278.436 293.404 282.507 293.404 287.529C293.404 292.55 297.478 296.621 302.503 296.621Z" fill="#FDB797"/>
<path opacity="0.1" d="M296.991 282.97C297.489 283.239 298.037 283.404 298.601 283.454C300.932 283.773 303.305 283.507 305.507 282.681C305.714 283.128 306.016 283.525 306.392 283.843C306.768 284.161 307.21 284.393 307.685 284.522C308.636 284.773 309.619 284.883 310.601 284.847C310.818 284.872 311.038 284.831 311.231 284.728C311.67 284.434 311.458 283.759 311.2 283.295L309.93 280.999C309.594 280.3 309.14 279.664 308.588 279.117C307.821 278.513 306.908 278.122 305.941 277.982C303.689 277.535 301.365 277.613 299.148 278.209C296.774 278.838 293.739 281.005 296.991 282.97Z" fill="black"/>
<path d="M296.991 282.774C297.489 283.043 298.037 283.208 298.601 283.259C300.932 283.577 303.305 283.311 305.507 282.485C305.714 282.932 306.016 283.329 306.392 283.647C306.768 283.965 307.21 284.197 307.685 284.326C308.636 284.577 309.619 284.687 310.601 284.651C310.818 284.676 311.038 284.635 311.231 284.532C311.67 284.238 311.458 283.563 311.2 283.099L309.93 280.804C309.594 280.104 309.14 279.468 308.588 278.921C307.821 278.317 306.908 277.926 305.941 277.786C303.689 277.339 301.365 277.417 299.148 278.013C296.774 278.643 293.739 280.809 296.991 282.774Z" fill="#814E4D"/>
<path d="M311.504 289.009C311.941 289.009 312.294 288.346 312.294 287.529C312.294 286.711 311.941 286.049 311.504 286.049C311.068 286.049 310.715 286.711 310.715 287.529C310.715 288.346 311.068 289.009 311.504 289.009Z" fill="#FDB797"/>
<path d="M293.502 289.009C293.938 289.009 294.292 288.346 294.292 287.529C294.292 286.711 293.938 286.049 293.502 286.049C293.066 286.049 292.712 286.711 292.712 287.529C292.712 288.346 293.066 289.009 293.502 289.009Z" fill="#FDB797"/>
<path d="M326.839 278.044C328.042 278.044 329.017 277.07 329.017 275.868C329.017 274.666 328.042 273.691 326.839 273.691C325.636 273.691 324.661 274.666 324.661 275.868C324.661 277.07 325.636 278.044 326.839 278.044Z" fill="#FDB797"/>
<path d="M302.705 291.087C302.705 291.087 297.543 292.867 293.605 288.911C293.605 288.911 293.925 290.221 294.477 291.804C295.37 293.492 296.771 294.856 298.483 295.703C300.194 296.55 302.129 296.838 304.013 296.526C305.897 296.213 307.635 295.316 308.981 293.961C310.326 292.606 311.211 290.863 311.51 288.978C310.565 289.494 303.804 292.738 302.705 291.087ZM302.508 293.46C301.523 293.46 300.728 292.712 300.728 292.274C300.728 291.835 301.523 291.877 302.508 291.877C303.494 291.877 304.289 291.835 304.289 292.274C304.289 292.712 303.484 293.46 302.503 293.46H302.508Z" fill="#814E4D"/>
<path d="M307.339 299.205C307.339 299.205 317.935 293.264 324.465 275.868L327.628 277.843C327.628 277.843 322.385 300.02 309.228 305.126L307.339 299.205Z" fill="#6C63FF"/>
<path d="M278.168 278.044C279.371 278.044 280.346 277.07 280.346 275.868C280.346 274.666 279.371 273.691 278.168 273.691C276.965 273.691 275.99 274.666 275.99 275.868C275.99 277.07 276.965 278.044 278.168 278.044Z" fill="#FDB797"/>
<path d="M297.667 299.205C297.667 299.205 287.071 293.264 280.542 275.868L277.378 277.843C277.378 277.843 282.622 300.02 295.778 305.126L297.667 299.205Z" fill="#6C63FF"/>
<path d="M296.666 368.192C297.427 368.192 298.157 368.494 298.695 369.032C299.233 369.569 299.535 370.299 299.535 371.059V371.338H293.801V371.044C293.805 370.287 294.109 369.562 294.645 369.028C295.182 368.494 295.908 368.193 296.666 368.192Z" fill="#333333"/>
<path d="M308.341 368.192C309.102 368.192 309.832 368.494 310.37 369.032C310.908 369.569 311.21 370.299 311.21 371.059V371.338H305.471V371.044C305.475 370.286 305.779 369.56 306.317 369.026C306.855 368.492 307.582 368.192 308.341 368.192Z" fill="#333333"/>
</g>
</g>
<defs>
<linearGradient id="paint0_linear" x1="68.7123" y1="70.3582" x2="68.7123" y2="58.0473" gradientUnits="userSpaceOnUse">
<stop stop-color="#808080" stop-opacity="0.25"/>
<stop offset="0.54" stop-color="#808080" stop-opacity="0.12"/>
<stop offset="1" stop-color="#808080" stop-opacity="0.1"/>
</linearGradient>
<linearGradient id="paint1_linear" x1="47279.6" y1="23543.1" x2="47279.6" y2="7721.54" gradientUnits="userSpaceOnUse">
<stop stop-color="#808080" stop-opacity="0.25"/>
<stop offset="0.54" stop-color="#808080" stop-opacity="0.12"/>
<stop offset="1" stop-color="#808080" stop-opacity="0.1"/>
</linearGradient>
<linearGradient id="paint2_linear" x1="3914.84" y1="2694.36" x2="3914.84" y2="2309.33" gradientUnits="userSpaceOnUse">
<stop stop-color="#808080" stop-opacity="0.25"/>
<stop offset="0.54" stop-color="#808080" stop-opacity="0.12"/>
<stop offset="1" stop-color="#808080" stop-opacity="0.1"/>
</linearGradient>
<linearGradient id="paint3_linear" x1="4896.68" y1="4187.44" x2="4896.68" y2="3358.35" gradientUnits="userSpaceOnUse">
<stop stop-color="#808080" stop-opacity="0.25"/>
<stop offset="0.54" stop-color="#808080" stop-opacity="0.12"/>
<stop offset="1" stop-color="#808080" stop-opacity="0.1"/>
</linearGradient>
<linearGradient id="paint4_linear" x1="71262.8" y1="22542.6" x2="71262.8" y2="16157.7" gradientUnits="userSpaceOnUse">
<stop stop-color="#808080" stop-opacity="0.25"/>
<stop offset="0.54" stop-color="#808080" stop-opacity="0.12"/>
<stop offset="1" stop-color="#808080" stop-opacity="0.1"/>
</linearGradient>
<linearGradient id="paint5_linear" x1="10939.6" y1="9000.35" x2="11620.5" y2="9000.35" gradientUnits="userSpaceOnUse">
<stop stop-color="#808080" stop-opacity="0.25"/>
<stop offset="0.54" stop-color="#808080" stop-opacity="0.12"/>
<stop offset="1" stop-color="#808080" stop-opacity="0.1"/>
</linearGradient>
<linearGradient id="paint6_linear" x1="15794.8" y1="3326.46" x2="16475.6" y2="3326.46" gradientUnits="userSpaceOnUse">
<stop stop-color="#808080" stop-opacity="0.25"/>
<stop offset="0.54" stop-color="#808080" stop-opacity="0.12"/>
<stop offset="1" stop-color="#808080" stop-opacity="0.1"/>
</linearGradient>
<linearGradient id="paint7_linear" x1="15794.8" y1="16605.4" x2="16475.6" y2="16605.4" gradientUnits="userSpaceOnUse">
<stop stop-color="#808080" stop-opacity="0.25"/>
<stop offset="0.54" stop-color="#808080" stop-opacity="0.12"/>
<stop offset="1" stop-color="#808080" stop-opacity="0.1"/>
</linearGradient>
<linearGradient id="paint8_linear" x1="4066.85" y1="5125.79" x2="4105.74" y2="5125.79" gradientUnits="userSpaceOnUse">
<stop stop-color="#808080" stop-opacity="0.25"/>
<stop offset="0.54" stop-color="#808080" stop-opacity="0.12"/>
<stop offset="1" stop-color="#808080" stop-opacity="0.1"/>
</linearGradient>
<linearGradient id="paint9_linear" x1="4112.62" y1="31132.5" x2="4200.25" y2="31132.5" gradientUnits="userSpaceOnUse">
<stop stop-color="#808080" stop-opacity="0.25"/>
<stop offset="0.54" stop-color="#808080" stop-opacity="0.12"/>
<stop offset="1" stop-color="#808080" stop-opacity="0.1"/>
</linearGradient>
<linearGradient id="paint10_linear" x1="4281.28" y1="31132.5" x2="4368.91" y2="31132.5" gradientUnits="userSpaceOnUse">
<stop stop-color="#808080" stop-opacity="0.25"/>
<stop offset="0.54" stop-color="#808080" stop-opacity="0.12"/>
<stop offset="1" stop-color="#808080" stop-opacity="0.1"/>
</linearGradient>
<linearGradient id="paint11_linear" x1="4066.85" y1="2568.71" x2="4105.74" y2="2568.71" gradientUnits="userSpaceOnUse">
<stop stop-color="#808080" stop-opacity="0.25"/>
<stop offset="0.54" stop-color="#808080" stop-opacity="0.12"/>
<stop offset="1" stop-color="#808080" stop-opacity="0.1"/>
</linearGradient>
<linearGradient id="paint12_linear" x1="11386.9" y1="11047.3" x2="12128.3" y2="11047.3" gradientUnits="userSpaceOnUse">
<stop stop-color="#808080" stop-opacity="0.25"/>
<stop offset="0.54" stop-color="#808080" stop-opacity="0.12"/>
<stop offset="1" stop-color="#808080" stop-opacity="0.1"/>
</linearGradient>
<linearGradient id="paint13_linear" x1="10939.6" y1="10682.3" x2="11620.5" y2="10682.3" gradientUnits="userSpaceOnUse">
<stop stop-color="#808080" stop-opacity="0.25"/>
<stop offset="0.54" stop-color="#808080" stop-opacity="0.12"/>
<stop offset="1" stop-color="#808080" stop-opacity="0.1"/>
</linearGradient>
<linearGradient id="paint14_linear" x1="13907" y1="4913.23" x2="14426.5" y2="4913.23" gradientUnits="userSpaceOnUse">
<stop stop-color="#808080" stop-opacity="0.25"/>
<stop offset="0.54" stop-color="#808080" stop-opacity="0.12"/>
<stop offset="1" stop-color="#808080" stop-opacity="0.1"/>
</linearGradient>
<linearGradient id="paint15_linear" x1="13907" y1="4910.1" x2="14426.5" y2="4910.1" gradientUnits="userSpaceOnUse">
<stop stop-color="#808080" stop-opacity="0.25"/>
<stop offset="0.54" stop-color="#808080" stop-opacity="0.12"/>
<stop offset="1" stop-color="#808080" stop-opacity="0.1"/>
</linearGradient>
<linearGradient id="paint16_linear" x1="1293.59" y1="1980.95" x2="1298.75" y2="1980.95" gradientUnits="userSpaceOnUse">
<stop stop-color="#808080" stop-opacity="0.25"/>
<stop offset="0.54" stop-color="#808080" stop-opacity="0.12"/>
<stop offset="1" stop-color="#808080" stop-opacity="0.1"/>
</linearGradient>
<linearGradient id="paint17_linear" x1="1216.45" y1="1980.95" x2="1221.6" y2="1980.95" gradientUnits="userSpaceOnUse">
<stop stop-color="#808080" stop-opacity="0.25"/>
<stop offset="0.54" stop-color="#808080" stop-opacity="0.12"/>
<stop offset="1" stop-color="#808080" stop-opacity="0.1"/>
</linearGradient>
<linearGradient id="paint18_linear" x1="3149.12" y1="2654.7" x2="3188.05" y2="2654.7" gradientUnits="userSpaceOnUse">
<stop stop-color="#808080" stop-opacity="0.25"/>
<stop offset="0.54" stop-color="#808080" stop-opacity="0.12"/>
<stop offset="1" stop-color="#808080" stop-opacity="0.1"/>
</linearGradient>
<linearGradient id="paint19_linear" x1="15554.8" y1="5481.06" x2="16213.2" y2="5481.06" gradientUnits="userSpaceOnUse">
<stop stop-color="#808080" stop-opacity="0.25"/>
<stop offset="0.54" stop-color="#808080" stop-opacity="0.12"/>
<stop offset="1" stop-color="#808080" stop-opacity="0.1"/>
</linearGradient>
<linearGradient id="paint20_linear" x1="18170.1" y1="19768.3" x2="19016.2" y2="19768.3" gradientUnits="userSpaceOnUse">
<stop stop-color="#808080" stop-opacity="0.25"/>
<stop offset="0.54" stop-color="#808080" stop-opacity="0.12"/>
<stop offset="1" stop-color="#808080" stop-opacity="0.1"/>
</linearGradient>
<linearGradient id="paint21_linear" x1="2663.95" y1="2654.7" x2="2702.88" y2="2654.7" gradientUnits="userSpaceOnUse">
<stop stop-color="#808080" stop-opacity="0.25"/>
<stop offset="0.54" stop-color="#808080" stop-opacity="0.12"/>
<stop offset="1" stop-color="#808080" stop-opacity="0.1"/>
</linearGradient>
<linearGradient id="paint22_linear" x1="16873.6" y1="19765" x2="17718.7" y2="19765" gradientUnits="userSpaceOnUse">
<stop stop-color="#808080" stop-opacity="0.25"/>
<stop offset="0.54" stop-color="#808080" stop-opacity="0.12"/>
<stop offset="1" stop-color="#808080" stop-opacity="0.1"/>
</linearGradient>
<linearGradient id="paint23_linear" x1="5185.15" y1="2989.91" x2="5252.81" y2="2989.91" gradientUnits="userSpaceOnUse">
<stop stop-color="#808080" stop-opacity="0.25"/>
<stop offset="0.54" stop-color="#808080" stop-opacity="0.12"/>
<stop offset="1" stop-color="#808080" stop-opacity="0.1"/>
</linearGradient>
<linearGradient id="paint24_linear" x1="5343.55" y1="2989.91" x2="5411.33" y2="2989.91" gradientUnits="userSpaceOnUse">
<stop stop-color="#808080" stop-opacity="0.25"/>
<stop offset="0.54" stop-color="#808080" stop-opacity="0.12"/>
<stop offset="1" stop-color="#808080" stop-opacity="0.1"/>
</linearGradient>
<clipPath id="clip0">
<rect width="352" height="376" fill="white"/>
</clipPath>
</defs>
</svg>
