<svg width="100%" viewBox="0 0 508 357" fill="none" xmlns="http://www.w3.org/2000/svg">
<rect width="100%" />
<path d="M440.22 357C456.344 357 469.416 353.538 469.416 349.268C469.416 344.997 456.344 341.535 440.22 341.535C424.095 341.535 411.024 344.997 411.024 349.268C411.024 353.538 424.095 357 440.22 357Z" fill="#FAFAFA"/>
<path d="M488.37 316.258C477.262 325.451 461.455 329.256 446.169 331.659L443.596 332.05C427.629 334.426 411.485 335.691 395.286 336.461C386.618 336.879 377.95 337.175 369.283 337.439L362.49 337.639C353.671 337.9 344.834 338.157 335.981 338.408C327.314 338.654 318.646 338.885 309.979 339.1C298.878 339.37 287.778 339.595 276.677 339.774C268.01 339.91 259.342 340.004 250.674 340.056C239.571 340.12 228.47 340.098 217.373 339.992C208.699 339.904 200.032 339.753 191.37 339.537C180.264 339.252 169.163 338.835 158.069 338.286C150.538 337.918 143.013 337.477 135.492 336.961L132.066 336.72C99.7817 334.399 66.918 330.234 38.6664 317.072L37.9045 316.713C37.5259 316.535 37.1473 316.358 36.7686 316.171C31.5814 313.697 26.6127 310.791 21.9152 307.483C13.5624 301.539 6.6649 294.285 3.01997 285.678C-2.69148 272.179 0.328473 257.006 6.85194 243.807C13.3754 230.609 23.1697 218.694 31.6411 206.265C34.1228 202.624 36.4767 198.846 38.6664 194.973C52.352 170.683 59.14 142.575 44.793 119.168C42.8992 116.184 40.8544 113.298 38.6664 110.521C35.1674 105.97 31.6092 101.419 29.2051 96.3806C23.5985 84.6567 24.8029 71.4719 26.8466 58.9471C29.5837 42.2942 34.6018 24.358 50.2854 13.954C66.5576 3.14944 89.6543 3.69559 109.85 7.5823C141.249 13.5853 170.231 26.1512 199.486 37.4836C228.741 48.8161 259.388 59.1792 291.553 60.2942C298.463 60.5301 305.381 60.2792 312.255 59.5433C321.419 58.6037 330.459 56.7045 339.225 53.877C351.884 49.7172 363.403 43.4594 371.942 34.762C390.258 16.1704 424.678 14.7641 449.494 25.9919C473.175 36.7054 488.489 59.3794 487.358 82.0262C486.071 107.235 467.148 127.961 449.809 149.22C447.706 151.796 445.63 154.381 443.609 156.984C442.481 158.438 441.374 159.894 440.288 161.353C438.386 163.929 436.548 166.519 434.814 169.141C425.955 182.58 419.691 198.723 425.791 213.232C429.212 221.356 435.74 227.555 443.609 232.966C461.241 245.086 485.578 253.242 496.527 270.209C505.961 284.832 502.466 304.57 488.37 316.258Z" fill="#FAFAFA"/>
<g opacity="0.1">
<path opacity="0.1" d="M148.799 333.857C148.799 334.158 148.767 334.458 148.73 334.767C146.206 333.766 143.726 332.694 141.29 331.55C139.992 331.38 138.785 330.794 137.85 329.879C137.139 329.518 136.432 329.151 135.729 328.778C135.888 328.445 136.067 328.123 136.267 327.813C137.636 325.656 139.707 324.309 141.997 324.382C144.287 324.455 146.267 325.929 147.471 328.159C148.414 329.907 148.873 331.874 148.799 333.857Z" fill="#3F3D56"/>
<path opacity="0.1" d="M149.155 322.529C149.11 324.514 148.537 326.45 147.494 328.141C146.126 330.289 144.05 331.641 141.764 331.568L141.308 331.532C140.01 331.362 138.803 330.776 137.869 329.861C137.234 329.261 136.7 328.563 136.286 327.795C135.371 326.034 134.923 324.068 134.985 322.085C135.048 320.102 135.618 318.168 136.641 316.467C138.01 314.31 140.086 312.963 142.371 313.036C144.657 313.108 146.641 314.583 147.868 316.813C148.8 318.57 149.244 320.544 149.155 322.529Z" fill="#3F3D56"/>
<path opacity="0.1" d="M149.523 311.222C149.685 306.105 146.64 301.856 142.722 301.732C138.804 301.609 135.496 305.657 135.334 310.775C135.172 315.892 138.217 320.141 142.135 320.265C146.053 320.388 149.361 316.34 149.523 311.222Z" fill="#3F3D56"/>
<path opacity="0.1" d="M149.878 299.896C150.04 294.779 146.995 290.53 143.077 290.406C139.158 290.283 135.85 294.331 135.688 299.449C135.526 304.567 138.571 308.815 142.489 308.939C146.408 309.062 149.716 305.014 149.878 299.896Z" fill="#3F3D56"/>
<path opacity="0.1" d="M150.237 288.566C150.399 283.448 147.354 279.199 143.436 279.076C139.517 278.952 136.21 283.001 136.047 288.118C135.885 293.236 138.93 297.485 142.849 297.608C146.767 297.732 150.075 293.683 150.237 288.566Z" fill="#3F3D56"/>
<path opacity="0.1" d="M119.024 209.983C118.093 208.72 117.251 207.396 116.501 206.019L135.241 203.534L115.073 203.079C113.271 198.819 112.359 194.237 112.393 189.614C112.428 184.99 113.408 180.423 115.274 176.19L141.883 191.041L117.514 171.949C119.98 167.996 123.235 164.592 127.077 161.949C130.918 159.306 135.264 157.48 139.844 156.585C144.423 155.69 149.139 155.745 153.696 156.746C158.253 157.748 162.555 159.674 166.334 162.406C170.113 165.138 173.288 168.617 175.661 172.625C178.034 176.634 179.554 181.087 180.128 185.708C180.701 190.328 180.315 195.017 178.994 199.482C177.673 203.947 175.444 208.093 172.448 211.662C173.899 213.626 175.133 215.741 176.129 217.97L151.531 229.749L177.612 221.921C179.253 227.323 179.52 233.047 178.387 238.578C177.254 244.108 174.758 249.27 171.125 253.597C174.909 258.723 177.172 264.808 177.654 271.156C178.135 277.504 176.817 283.859 173.849 289.495C170.881 295.131 166.383 299.82 160.87 303.026C155.357 306.232 149.051 307.826 142.673 307.625C136.295 307.424 130.102 305.436 124.803 301.889C119.503 298.343 115.311 293.38 112.706 287.568C110.1 281.757 109.187 275.331 110.069 269.026C110.952 262.721 113.595 256.79 117.696 251.913C113.174 245.788 110.846 238.325 111.086 230.721C111.327 223.117 114.123 215.815 119.024 209.987V209.983Z" fill="#6C63FF"/>
</g>
<g opacity="0.1">
<path opacity="0.1" d="M386.367 274.669C386.367 274.974 386.335 275.27 386.303 275.579C383.776 274.578 381.296 273.505 378.863 272.361C377.564 272.192 376.355 271.605 375.419 270.691C374.711 270.332 374 269.963 373.297 269.59C373.458 269.258 373.637 268.936 373.836 268.625C375.204 266.468 377.275 265.121 379.565 265.193C381.855 265.266 383.835 266.741 385.04 268.971C385.982 270.719 386.441 272.686 386.367 274.669Z" fill="#3F3D56"/>
<path opacity="0.1" d="M386.75 263.341C386.704 265.326 386.129 267.263 385.085 268.953C383.717 271.101 381.646 272.453 379.355 272.38L378.899 272.343C377.6 272.173 376.392 271.587 375.455 270.673C374.822 270.071 374.288 269.374 373.872 268.607C372.957 266.845 372.509 264.88 372.572 262.897C372.634 260.914 373.204 258.98 374.228 257.279C375.596 255.126 377.672 253.774 379.958 253.847C382.243 253.92 384.232 255.395 385.455 257.625C386.39 259.381 386.837 261.354 386.75 263.341Z" fill="#3F3D56"/>
<path opacity="0.1" d="M387.107 252.03C387.269 246.913 384.224 242.664 380.305 242.541C376.387 242.417 373.079 246.466 372.917 251.583C372.755 256.701 375.8 260.949 379.718 261.073C383.637 261.196 386.945 257.148 387.107 252.03Z" fill="#3F3D56"/>
<path opacity="0.1" d="M387.466 240.704C387.628 235.587 384.583 231.338 380.665 231.215C376.746 231.091 373.439 235.14 373.276 240.257C373.114 245.375 376.159 249.623 380.078 249.747C383.996 249.87 387.304 245.822 387.466 240.704Z" fill="#3F3D56"/>
<path opacity="0.1" d="M387.825 229.379C387.987 224.261 384.942 220.012 381.024 219.889C377.105 219.765 373.798 223.814 373.636 228.931C373.473 234.049 376.518 238.298 380.437 238.421C384.355 238.545 387.663 234.496 387.825 229.379Z" fill="#3F3D56"/>
<path opacity="0.1" d="M356.592 150.795C355.66 149.534 354.819 148.209 354.074 146.831L372.814 144.368L352.646 143.881C350.844 139.622 349.932 135.04 349.966 130.417C350 125.794 350.978 121.226 352.842 116.993L379.451 131.843L355.082 112.76C357.544 108.798 360.798 105.385 364.64 102.733C368.483 100.081 372.833 98.2472 377.417 97.3466C382.002 96.446 386.723 96.4977 391.287 97.4983C395.851 98.4989 400.159 100.427 403.943 103.162C407.726 105.898 410.904 109.382 413.279 113.397C415.653 117.412 417.172 121.872 417.742 126.499C418.312 131.126 417.92 135.82 416.591 140.289C415.261 144.758 413.023 148.906 410.016 152.474C411.466 154.438 412.698 156.553 413.693 158.782L389.095 170.56L415.175 162.732C416.819 168.133 417.087 173.858 415.954 179.388C414.821 184.919 412.324 190.08 408.688 194.404C412.473 199.529 414.737 205.613 415.219 211.961C415.701 218.309 414.384 224.664 411.416 230.3C408.449 235.935 403.952 240.624 398.439 243.83C392.926 247.036 386.621 248.63 380.243 248.429C373.865 248.228 367.673 246.24 362.374 242.693C357.075 239.147 352.884 234.184 350.279 228.372C347.674 222.561 346.761 216.135 347.644 209.831C348.528 203.526 351.171 197.596 355.273 192.72C350.751 186.595 348.423 179.132 348.664 171.528C348.904 163.925 351.7 156.622 356.601 150.795H356.592Z" fill="#6C63FF"/>
<path opacity="0.1" d="M416.63 173.669C416.402 181.275 413.605 188.582 408.693 194.404C412.477 199.529 414.74 205.613 415.222 211.961C415.704 218.308 414.385 224.663 411.418 230.298C408.45 235.934 403.953 240.622 398.441 243.828C392.928 247.033 386.623 248.627 380.245 248.426C373.868 248.225 367.676 246.237 362.377 242.691C357.079 239.145 352.887 234.182 350.282 228.371C347.677 222.56 346.764 216.135 347.647 209.831C348.529 203.526 351.172 197.597 355.273 192.72C350.894 186.808 416.749 169.855 416.63 173.669Z" fill="black"/>
</g>
<path d="M157.616 277.741V337.733C150.063 337.519 142.515 337.262 134.972 336.961L131.536 336.82V277.741C131.536 277.434 131.64 277.129 131.843 276.845C132.046 276.561 132.343 276.303 132.718 276.086C133.092 275.868 133.537 275.696 134.027 275.578C134.517 275.461 135.041 275.4 135.571 275.4H153.58C154.11 275.4 154.635 275.461 155.125 275.578C155.614 275.696 156.059 275.868 156.434 276.086C156.809 276.303 157.106 276.561 157.309 276.845C157.512 277.129 157.616 277.434 157.616 277.741Z" fill="#FDCD3B"/>
<path d="M191.634 339.781V255.817C191.634 255.299 192.059 254.803 192.816 254.438C193.573 254.072 194.599 253.867 195.67 253.867H213.679C214.209 253.867 214.733 253.917 215.223 254.015C215.713 254.113 216.158 254.257 216.532 254.438C216.907 254.619 217.204 254.834 217.407 255.07C217.61 255.307 217.714 255.56 217.714 255.817V340L191.634 339.781Z" fill="#FDCD3B"/>
<path d="M250.598 340V233.186C250.598 232.359 251.023 231.565 251.78 230.98C252.537 230.395 253.563 230.067 254.634 230.067H272.643C273.713 230.067 274.74 230.395 275.497 230.98C276.253 231.565 276.679 232.359 276.679 233.186V339.77L250.598 340Z" fill="#FDCD3B"/>
<path d="M335.643 190.629V338.437C326.949 338.589 318.256 338.733 309.562 338.867V190.629C309.562 189.967 309.988 189.332 310.744 188.864C311.501 188.396 312.528 188.133 313.598 188.133H331.607C332.678 188.133 333.704 188.396 334.461 188.864C335.218 189.332 335.643 189.967 335.643 190.629Z" fill="#FDCD3B"/>
<path d="M395.285 148.464V336.429C386.618 336.847 377.95 337.143 369.283 337.407V148.464C369.283 147.4 369.707 146.379 370.461 145.626C371.216 144.873 372.239 144.45 373.306 144.45H391.262C392.329 144.45 393.352 144.873 394.107 145.626C394.862 146.379 395.285 147.4 395.285 148.464Z" fill="#FDCD3B"/>
<path d="M140.607 252.733L208.076 224.967L261.5 197.5L318.634 157.533L378.732 111.067" stroke="black" stroke-width="7" stroke-miterlimit="10" stroke-linecap="round"/>
<path d="M145.443 260.087C152.497 260.087 158.216 254.381 158.216 247.343C158.216 240.305 152.497 234.6 145.443 234.6C138.388 234.6 132.67 240.305 132.67 247.343C132.67 254.381 138.388 260.087 145.443 260.087Z" fill="#0037FF"/>
<path d="M203.273 239.82C210.328 239.82 216.046 234.115 216.046 227.077C216.046 220.039 210.328 214.333 203.273 214.333C196.219 214.333 190.5 220.039 190.5 227.077C190.5 234.115 196.219 239.82 203.273 239.82Z" fill="#0037FF"/>
<path d="M262.238 209.353C269.292 209.353 275.011 203.648 275.011 196.61C275.011 189.572 269.292 183.867 262.238 183.867C255.183 183.867 249.464 189.572 249.464 196.61C249.464 203.648 255.183 209.353 262.238 209.353Z" fill="#0037FF"/>
<path d="M323.47 166.42C330.524 166.42 336.243 160.715 336.243 153.677C336.243 146.639 330.524 140.933 323.47 140.933C316.415 140.933 310.696 146.639 310.696 153.677C310.696 160.715 316.415 166.42 323.47 166.42Z" fill="#0037FF"/>
<path d="M437.027 161.754C444.081 161.754 449.8 156.049 449.8 149.011C449.8 141.973 444.081 136.267 437.027 136.267C429.972 136.267 424.253 141.973 424.253 149.011C424.253 156.049 429.972 161.754 437.027 161.754Z" fill="#0037FF"/>
<path d="M387.576 156.825C387.661 157.622 387.978 158.377 388.488 158.996C389.15 159.742 390.14 160.084 391.029 160.53C393.331 161.705 395.09 163.722 395.938 166.159C397.457 170.583 397.653 175.262 399.587 179.531C401.522 183.8 403.793 187.9 405.463 192.274C406.412 194.755 407.169 197.335 408.561 199.592C409.234 200.703 410.094 201.689 411.101 202.51C410.997 204.112 410.956 205.696 410.965 207.298C411.273 207.292 411.578 207.364 411.85 207.507C412.123 207.65 412.355 207.86 412.525 208.117C412.862 208.636 413.095 209.216 413.209 209.824C413.834 212.404 413.063 215.153 413.624 217.747C415.166 224.963 414.692 232.463 412.256 239.429C411.631 241.195 410.846 247.039 411.512 248.791C413.994 248.541 416.193 250.061 418.515 251.066C418.702 252.439 418.59 253.837 418.186 255.163C417.351 257.561 417.356 260.169 417.369 262.704L417.484 281.482C417.484 283.862 417.515 286.274 418.113 288.582C418.793 291.181 420.221 293.829 420.175 296.515C420.052 302.295 422.789 307.802 422.57 313.536C422.529 314.638 422.378 315.73 422.273 316.822C422.004 319.732 422.078 322.663 422.492 325.556C423.323 331.318 425.517 336.984 424.97 342.778C424.933 343.169 424.801 343.688 424.431 343.838C424.887 344.352 425.371 344.862 425.864 345.349C425.764 345.515 425.628 345.656 425.467 345.763C424.928 346.044 424.332 346.2 423.724 346.218C423.011 346.237 422.319 346.461 421.731 346.865C421.303 347.274 421.013 347.805 420.9 348.385C420.738 348.958 420.703 349.559 420.798 350.147C420.892 350.735 421.114 351.295 421.448 351.789C421.855 352.3 422.388 352.699 422.994 352.945C425.102 353.855 427.52 353.195 429.718 352.531L438.331 349.927C438.857 349.819 439.341 349.567 439.732 349.199C439.91 348.989 440.029 348.734 440.074 348.462C441.976 348.917 444.066 348.357 446.004 347.779L454.617 345.171C455.143 345.065 455.629 344.812 456.018 344.443C456.173 344.255 456.284 344.035 456.345 343.799C456.406 343.564 456.414 343.317 456.369 343.078C456.433 343.051 456.497 343.032 456.56 343.001C457.217 342.705 457.929 342.127 457.769 341.43C457.655 340.975 457.199 340.711 457.003 340.293C456.911 340.02 456.892 339.729 456.948 339.447C457.004 339.165 457.133 338.903 457.322 338.686C457.66 338.231 458.116 337.853 458.426 337.375C459.421 335.855 458.746 333.857 458.372 332.078C457.564 328.277 458.312 324.309 457.801 320.458C457.628 319.161 457.313 317.887 457.062 316.599C456.531 313.555 456.179 310.482 456.008 307.397C455.68 302.991 454.453 298.649 455.155 294.28C455.497 291.716 455.641 289.129 455.589 286.543C455.638 284.896 455.567 283.247 455.374 281.61C455.196 280.39 454.882 279.193 454.745 277.969C454.634 276.592 454.609 275.211 454.672 273.832C454.735 270.757 454.45 267.685 453.823 264.675C452.911 260.538 451.196 256.578 450.466 252.432C450.712 252.486 450.959 252.541 451.196 252.605C451.223 249.419 448.427 242.492 447.391 239.47C447.24 239.1 447.147 238.708 447.117 238.309C447.18 237.784 447.276 237.262 447.405 236.748C447.537 235.647 446.949 234.6 446.789 233.499C446.727 232.724 446.784 231.944 446.958 231.187C447.692 227.114 448.605 223.072 449.517 219.035C449.915 217.573 450.052 216.053 449.923 214.543C449.817 213.743 449.884 212.93 450.12 212.158C450.356 211.386 450.756 210.674 451.292 210.069C451.692 209.7 452.034 209.272 452.304 208.8C452.456 208.394 452.524 207.962 452.505 207.53C452.487 205.658 452.211 203.797 451.684 202C452.487 200.548 452.783 198.764 453.016 197.08C453.527 193.362 454.038 189.625 454.019 185.871C454.06 183.868 453.783 181.871 453.198 179.954C452.771 178.77 452.25 177.623 451.638 176.523C449.239 171.912 446.944 167.061 443.915 162.837C443.003 161.554 443.577 159.783 443.641 158.199C443.71 156.288 442.952 154.454 442.209 152.697C441.829 151.616 441.247 150.616 440.494 149.752C440.239 149.472 439.929 149.247 439.584 149.091C439.239 148.934 438.865 148.85 438.486 148.842C438.057 148.895 437.644 149.038 437.274 149.264C436.905 149.489 436.589 149.791 436.347 150.148C435.795 150.898 435.398 151.749 435.178 152.653C434.958 153.557 434.919 154.495 435.065 155.414C435.368 157.253 436.171 158.974 437.387 160.389C437.974 161.1 438.647 161.738 439.39 162.286C440.144 164.677 440.904 167.067 441.671 169.455C442.875 173.255 444.079 177.073 445.776 180.669C446.273 181.711 446.821 182.771 446.88 183.923C446.944 185.165 446.424 186.349 446.009 187.518C445.134 189.956 444.639 192.513 444.54 195.1C444.407 195.159 444.278 195.229 444.157 195.31C442.72 196.247 442.268 198.291 440.772 199.128C439.901 199.615 438.842 199.583 437.866 199.806C437.779 199.806 437.693 199.852 437.601 199.879C437.565 199.697 437.528 199.52 437.506 199.333C437.492 199.217 437.492 199.099 437.506 198.983C439.832 197.707 441.786 195.85 443.176 193.594C443.469 193.176 443.695 192.716 443.847 192.229C443.97 191.645 443.993 191.045 443.915 190.454C443.839 188.48 443.556 186.52 443.071 184.605C442.584 182.681 441.519 180.952 440.019 179.649C439.271 179.048 438.409 178.598 437.665 177.993C436.215 176.823 435.22 175.093 433.56 174.224C432.503 173.711 431.297 173.59 430.159 173.884C429.021 174.177 428.026 174.866 427.351 175.826C427.13 176.27 426.819 176.664 426.438 176.982C426.148 177.119 425.865 177.271 425.59 177.437C425.088 177.838 425.061 178.607 425.225 179.23C425.536 180.512 425.711 181.822 425.745 183.14C424.273 184.864 423.462 187.053 423.457 189.318C423.452 191.582 424.253 193.775 425.718 195.506C425.718 196.352 425.718 197.199 425.686 198.045C425.686 198.204 425.686 198.368 425.654 198.528C425.128 198.345 424.657 198.031 424.285 197.617C423.774 196.98 423.683 196.043 423.058 195.519C422.609 195.224 422.096 195.037 421.562 194.973C420.233 194.672 418.987 194.083 417.912 193.248C417.068 192.597 416.193 191.764 415.207 191.573C413.507 188.391 411.522 185.369 409.277 182.544C408.707 181.875 408.189 181.164 407.726 180.418C406.745 178.712 406.453 176.705 405.833 174.834C404.099 169.591 399.774 165.386 398.721 159.961C398.337 157.995 397.087 156.283 396.23 154.472C395.65 153.248 395.012 151.955 393.853 151.254C392.361 150.344 390.299 150.763 389.059 151.987C388.458 152.627 388.012 153.396 387.755 154.235C387.498 155.073 387.437 155.959 387.576 156.825ZM441.739 341.007C441.2 341.288 440.604 341.444 439.996 341.462C439.69 341.494 439.385 341.543 439.084 341.608C438.97 340.652 438.906 339.683 438.833 338.741C438.591 335.65 438.108 332.583 437.629 329.52C437.127 326.334 436.89 322.848 435.804 319.789C434.057 314.81 432.287 309.681 432.51 304.406C432.56 303.209 432.711 302.022 432.775 300.829C432.921 297.876 432.506 294.858 433.231 291.986C433.555 290.68 434.107 289.433 434.317 288.104C434.451 286.904 434.466 285.694 434.362 284.49C434.163 280.314 434.511 276.129 435.398 272.043C436.246 273.149 436.525 274.578 436.767 275.948L438.477 285.205C439.495 290.698 440.393 296.524 443.089 301.412C442.711 303.173 442.337 305.053 442.962 306.737C443.231 307.465 443.673 308.102 443.947 308.839C444.403 310.064 444.339 311.411 444.476 312.708C444.773 315.439 445.904 318.124 445.074 320.759C444.22 323.476 443.664 326.278 443.418 329.115C443.372 329.904 443.281 330.689 443.144 331.468C442.998 332.169 442.761 332.833 442.629 333.552C442.446 334.561 442.491 335.598 442.761 336.588C442.966 337.136 443.092 337.711 443.135 338.295C443.135 338.877 442.419 339.296 441.844 339.387C442.013 339.605 442.195 339.815 442.382 340.02C442.272 340.406 442.048 340.75 441.739 341.007Z" fill="url(#paint0_linear)"/>
<path d="M423.724 346.259C423.011 346.278 422.319 346.502 421.731 346.906C421.302 347.31 421.011 347.838 420.9 348.417C420.739 348.985 420.704 349.582 420.798 350.166C420.893 350.749 421.115 351.305 421.448 351.793C421.855 352.304 422.388 352.7 422.994 352.945C425.102 353.855 427.52 353.191 429.718 352.531L438.331 349.946C438.856 349.839 439.341 349.588 439.732 349.222C439.969 348.903 440.1 348.519 440.106 348.122C440.113 347.725 439.995 347.336 439.768 347.01C439.306 346.368 438.674 345.865 437.943 345.558C435.266 344.257 432.246 343.961 429.303 343.906C428.208 343.906 427.127 343.642 426.384 344.484C425.991 344.939 426.064 345.426 425.471 345.813C424.929 346.089 424.332 346.242 423.724 346.259Z" fill="#3F3D56"/>
<path d="M439.996 341.535C439.284 341.556 438.592 341.78 438.003 342.181C437.575 342.586 437.285 343.115 437.173 343.692C437.011 344.262 436.976 344.859 437.071 345.444C437.165 346.028 437.387 346.584 437.72 347.074C438.129 347.581 438.661 347.976 439.266 348.221C441.379 349.131 443.792 348.471 445.991 347.811L454.603 345.222C455.128 345.114 455.613 344.864 456.004 344.498C456.241 344.18 456.371 343.796 456.378 343.4C456.384 343.004 456.266 342.616 456.04 342.291C455.577 341.649 454.946 341.147 454.216 340.839C451.533 339.537 448.513 339.237 445.571 339.182C444.476 339.182 443.399 338.923 442.651 339.765C442.259 340.22 442.332 340.702 441.739 341.089C441.2 341.369 440.604 341.521 439.996 341.535Z" fill="#3F3D56"/>
<path d="M432.51 248.281C437.586 247.772 442.692 247.629 447.788 247.853C448.124 247.85 448.459 247.902 448.778 248.008C449.9 248.463 450.073 249.929 450.178 251.126C450.635 255.986 452.76 260.515 453.828 265.275C454.455 268.268 454.739 271.321 454.676 274.378C454.615 275.743 454.639 277.111 454.749 278.474C454.886 279.689 455.206 280.881 455.379 282.092C455.571 283.718 455.643 285.357 455.593 286.994C455.645 289.56 455.501 292.127 455.16 294.671C454.457 299.009 455.685 303.319 456.013 307.706C456.177 310.775 456.522 313.831 457.049 316.859C457.299 318.137 457.614 319.403 457.788 320.691C458.298 324.518 457.55 328.46 458.358 332.237C458.732 334.003 459.407 335.987 458.413 337.498C458.102 337.953 457.646 338.34 457.309 338.8C457.119 339.015 456.99 339.275 456.934 339.556C456.878 339.836 456.897 340.127 456.989 340.397C457.185 340.811 457.642 341.085 457.756 341.526C457.934 342.222 457.204 342.791 456.547 343.087C451.597 345.317 445.215 343.747 441.876 339.473C442.451 339.382 443.153 338.968 443.167 338.386C443.123 337.807 442.997 337.237 442.793 336.693C442.524 335.711 442.479 334.681 442.66 333.68C442.793 332.979 443.03 332.314 443.176 331.609C443.313 330.835 443.404 330.054 443.45 329.27C443.696 326.451 444.252 323.667 445.106 320.968C445.936 318.351 444.804 315.703 444.508 312.972C444.371 311.679 444.43 310.346 443.979 309.126C443.705 308.407 443.263 307.761 442.993 307.042C442.368 305.362 442.743 303.496 443.121 301.749C440.425 296.892 439.526 291.103 438.509 285.646L436.798 276.453C436.543 275.088 436.265 273.672 435.43 272.571C434.543 276.63 434.195 280.787 434.394 284.936C434.498 286.132 434.483 287.335 434.349 288.527C434.139 289.847 433.587 291.09 433.263 292.382C432.556 295.236 432.971 298.231 432.807 301.166C432.743 302.354 432.592 303.533 432.542 304.721C432.319 309.963 434.089 315.061 435.836 320.008C436.908 323.044 437.145 326.493 437.661 329.67C438.117 332.715 438.623 335.76 438.865 338.832C439.088 341.653 439.189 344.707 440.95 346.924C439.339 347.966 437.679 349.026 435.795 349.386C433.599 349.729 431.353 349.294 429.445 348.157C427.548 347.025 425.852 345.587 424.427 343.902C424.796 343.774 424.928 343.237 424.965 342.85C425.512 337.089 423.318 331.472 422.488 325.738C422.073 322.865 421.999 319.953 422.269 317.063C422.374 315.976 422.524 314.888 422.565 313.796C422.784 308.102 420.034 302.618 420.134 296.92C420.18 294.248 418.765 291.618 418.072 289.037C417.474 286.761 417.456 284.349 417.442 281.983L417.328 263.323C417.328 260.801 417.328 258.216 418.145 255.836C419.149 252.969 417.999 249.678 417.826 246.647C422.566 248.146 427.555 248.701 432.51 248.281Z" fill="black"/>
<path d="M416.247 194.668C414.33 190.757 411.988 187.069 409.263 183.668C408.694 183.004 408.175 182.298 407.712 181.556C406.731 179.859 406.439 177.865 405.819 176.008C404.085 170.802 399.761 166.619 398.707 161.235C398.324 159.278 397.074 157.594 396.216 155.774C395.637 154.558 394.998 153.275 393.839 152.588C392.348 151.678 390.286 152.096 389.045 153.316C388.448 153.951 388.005 154.714 387.75 155.546C387.496 156.379 387.436 157.258 387.576 158.117C387.661 158.91 387.979 159.661 388.488 160.275C389.15 161.017 390.14 161.353 391.029 161.799C393.328 162.962 395.087 164.966 395.938 167.393C397.457 171.785 397.653 176.436 399.587 180.678C401.522 184.919 403.793 188.988 405.463 193.326C406.412 195.788 407.169 198.332 408.561 200.607C409.952 202.883 412.123 204.79 414.746 205.131C414.729 203.482 414.98 201.84 415.49 200.271C416.06 198.477 417.073 196.366 416.247 194.668Z" fill="#FFA8B4"/>
<path d="M444.49 198.072C444.372 194.854 444.876 191.644 445.972 188.615C446.392 187.454 446.885 186.276 446.844 185.042C446.784 183.895 446.237 182.844 445.74 181.806C444.024 178.234 442.82 174.447 441.634 170.67L439.353 163.547C438.609 163.003 437.937 162.369 437.35 161.658C436.135 160.256 435.331 158.545 435.028 156.716C434.883 155.804 434.921 154.872 435.141 153.974C435.362 153.077 435.759 152.233 436.31 151.491C436.553 151.134 436.87 150.834 437.239 150.609C437.608 150.385 438.021 150.242 438.45 150.189C438.829 150.198 439.202 150.283 439.547 150.439C439.892 150.596 440.202 150.82 440.457 151.1C441.21 151.956 441.792 152.948 442.172 154.021C442.916 155.769 443.673 157.59 443.605 159.483C443.541 161.058 442.952 162.814 443.878 164.093C446.908 168.289 449.202 173.109 451.602 177.692C452.214 178.784 452.736 179.924 453.162 181.101C453.748 183.008 454.025 184.996 453.983 186.99C453.983 190.718 453.49 194.431 452.979 198.127C452.655 200.444 452.231 202.965 450.475 204.499C448.65 202.168 446.816 199.893 444.49 198.072Z" fill="#FFA8B4"/>
<path d="M432.884 199.847C438.112 199.847 442.35 195.619 442.35 190.404C442.35 185.188 438.112 180.96 432.884 180.96C427.657 180.96 423.418 185.188 423.418 190.404C423.418 195.619 427.657 199.847 432.884 199.847Z" fill="#FFA8B4"/>
<path d="M437.469 200.348C437.697 202.055 438.614 203.584 439.508 205.058C440.046 205.969 440.735 206.938 441.789 207.038C439.047 208.474 436.166 209.63 433.19 210.488C432.179 210.827 431.118 210.998 430.051 210.993C429.147 210.926 428.262 210.699 427.438 210.324C425.633 209.54 424.031 208.358 422.752 206.866C421.472 205.375 420.549 203.613 420.052 201.713C421.23 201.745 422.409 201.655 423.569 201.445C424.231 201.394 424.849 201.091 425.293 200.598C425.558 200.137 425.681 199.609 425.649 199.078C425.695 197.503 425.699 195.924 425.649 194.349C427.975 194.202 430.308 194.489 432.529 195.196C433.441 195.492 434.353 195.847 435.266 196.079C435.84 196.225 437.423 196.079 437.848 196.411C438.546 196.88 437.309 199.187 437.469 200.348Z" fill="#FFA8B4"/>
<path d="M433.309 206.087C433.412 204.843 433.906 203.663 434.72 202.714C435.534 201.766 436.627 201.097 437.843 200.803C438.819 200.585 439.878 200.612 440.749 200.13C442.245 199.297 442.697 197.267 444.134 196.334C445.571 195.401 447.61 195.92 448.86 197.098C450.11 198.277 450.744 199.957 451.255 201.6C452.018 203.821 452.432 206.147 452.482 208.495C452.501 208.924 452.433 209.353 452.281 209.755C452.011 210.225 451.669 210.65 451.269 211.016C450.733 211.615 450.334 212.323 450.098 213.09C449.862 213.858 449.794 214.667 449.9 215.463C450.03 216.961 449.892 218.472 449.494 219.923C448.582 223.937 447.669 227.946 446.935 231.997C446.763 232.742 446.706 233.51 446.766 234.273C446.908 235.369 447.514 236.407 447.382 237.504C447.253 238.015 447.157 238.533 447.095 239.056C447.124 239.452 447.217 239.84 447.368 240.207C448.404 243.207 451.2 250.079 451.173 253.256C446.314 252.013 439.152 251.735 434.134 251.713C432.754 251.698 431.375 251.759 430.001 251.895C426.703 252.25 423.327 253.21 420.129 252.323C417.16 251.499 414.532 249.137 411.462 249.433C410.796 247.694 411.58 241.891 412.205 240.134C414.642 233.217 415.116 225.763 413.574 218.594C413.013 216.018 413.784 213.282 413.159 210.725C413.045 210.12 412.812 209.543 412.475 209.027C412.305 208.771 412.072 208.562 411.8 208.42C411.527 208.277 411.222 208.206 410.914 208.212C410.858 204.098 411.24 199.99 412.055 195.956C412.356 194.522 412.967 192.829 414.441 192.584C415.745 192.361 416.84 193.462 417.89 194.268C418.965 195.098 420.211 195.683 421.539 195.979C422.074 196.042 422.586 196.229 423.035 196.525C423.66 197.044 423.751 197.977 424.262 198.609C425.175 199.743 427.214 199.647 427.862 200.953C428.003 201.342 428.118 201.741 428.204 202.146C428.51 202.922 429.033 203.595 429.709 204.085C430.725 205.038 431.962 205.725 433.309 206.087Z" fill="#FE0005"/>
<path d="M425.193 180.364C425.029 179.74 425.056 178.998 425.558 178.58C425.809 178.384 426.137 178.311 426.407 178.125C426.786 177.806 427.096 177.415 427.319 176.973C428 176.023 428.996 175.344 430.131 175.056C431.266 174.769 432.466 174.892 433.518 175.403C435.165 176.263 436.16 177.983 437.624 179.144C438.368 179.745 439.23 180.191 439.978 180.792C441.476 182.083 442.542 183.802 443.03 185.716C443.515 187.617 443.798 189.563 443.874 191.523C443.952 192.111 443.929 192.709 443.805 193.289C443.654 193.776 443.428 194.237 443.135 194.654C441.629 196.93 439.645 198.996 437.159 200.171C434.673 201.345 431.648 201.536 429.194 200.307C428.947 200.208 428.734 200.038 428.583 199.82C428.443 199.488 428.41 199.121 428.487 198.769C428.62 197.378 428.344 195.978 427.693 194.741C427.237 193.831 426.553 193.048 426.188 192.106C425.848 191.051 425.703 189.944 425.759 188.838C425.718 185.975 425.914 183.122 425.193 180.364Z" fill="#2D293D"/>
<defs>
<linearGradient id="paint0_linear" x1="458.933" y1="251.117" x2="387.517" y2="251.117" gradientUnits="userSpaceOnUse">
<stop stop-color="#808080" stop-opacity="0.25"/>
<stop offset="0.54" stop-color="#808080" stop-opacity="0.12"/>
<stop offset="1" stop-color="#808080" stop-opacity="0.1"/>
</linearGradient>
</defs>
</svg>
